<svg width="212" height="27" viewBox="0 0 212 27" fill="none" xmlns="http://www.w3.org/2000/svg">
<path d="M206.043 26L198.771 14.732H198.051L188.187 0.691999H193.983L201.219 11.312H201.939L211.767 26H206.043ZM187.755 26L197.223 12.464L200.823 14.876L193.299 26H187.755ZM202.191 13.976L198.591 11.564L205.791 0.691999H211.335L202.191 13.976Z" fill="#4B5563"/>
<path d="M167.971 26V0.691999H172.867V26H167.971ZM171.571 26V21.68H185.575V26H171.571ZM171.571 15.164V10.988H184.315V15.164H171.571ZM171.571 5.012V0.691999H185.395V5.012H171.571Z" fill="#4B5563"/>
<path d="M144.424 26V21.644H150.868C152.5 21.644 153.928 21.308 155.152 20.636C156.376 19.94 157.324 18.968 157.996 17.72C158.692 16.472 159.04 14.996 159.04 13.292C159.04 11.636 158.692 10.196 157.996 8.972C157.3 7.724 156.34 6.764 155.116 6.092C153.892 5.396 152.476 5.048 150.868 5.048H144.316V0.691999H150.94C152.812 0.691999 154.54 1.004 156.124 1.628C157.732 2.252 159.124 3.14 160.3 4.292C161.5 5.42 162.424 6.752 163.072 8.288C163.744 9.824 164.08 11.504 164.08 13.328C164.08 15.152 163.744 16.844 163.072 18.404C162.424 19.94 161.512 21.284 160.336 22.436C159.16 23.564 157.768 24.44 156.16 25.064C154.576 25.688 152.86 26 151.012 26H144.424ZM141.076 26V0.691999H145.972V26H141.076Z" fill="#4B5563"/>
<path d="M123.955 26V0.691999H128.851V26H123.955Z" fill="#4B5563"/>
<path d="M103.143 26V0.691999H108.039V26H103.143ZM106.743 15.632V11.276H119.487V15.632H106.743ZM106.743 5.012V0.691999H120.099V5.012H106.743Z" fill="#4B5563"/>
<path d="M72.5569 26V0.691999H76.0129L86.2729 17.108H84.2929L94.5169 0.691999H97.9729V26H93.1129V9.08L94.0489 9.368L86.9209 20.816H83.6088L76.4809 9.368L77.4529 9.08V26H72.5569Z" fill="#4B5563"/>
<path d="M57.4624 26.36C55.4704 26.36 53.6944 25.928 52.1344 25.064C50.5984 24.176 49.3864 22.964 48.4984 21.428C47.6104 19.892 47.1664 18.152 47.1664 16.208V0.691999H52.0624V16.352C52.0624 17.48 52.2904 18.452 52.7464 19.268C53.2264 20.084 53.8744 20.72 54.6904 21.176C55.5304 21.608 56.4544 21.824 57.4624 21.824C58.4944 21.824 59.4064 21.608 60.1984 21.176C60.9904 20.72 61.6144 20.084 62.0704 19.268C62.5504 18.452 62.7904 17.492 62.7904 16.388V0.691999H67.7224V16.244C67.7224 18.188 67.2784 19.928 66.3904 21.464C65.5024 22.976 64.2904 24.176 62.7544 25.064C61.2424 25.928 59.4784 26.36 57.4624 26.36Z" fill="#4B5563"/>
<path d="M20.4466 26L30.6346 0.691999H34.6306L44.7826 26H39.5626L31.7146 5.228H33.5146L25.5586 26H20.4466ZM25.8466 21.284V17.18H39.4546V21.284H25.8466Z" fill="#4B5563"/>
<path d="M4.192 15.416V11.6H10.06C11.26 11.6 12.184 11.3 12.832 10.7C13.504 10.076 13.84 9.224 13.84 8.144C13.84 7.16 13.504 6.344 12.832 5.696C12.184 5.024 11.26 4.688 10.06 4.688H4.192V0.691999H10.492C12.124 0.691999 13.552 1.016 14.776 1.664C16.024 2.288 16.984 3.152 17.656 4.256C18.352 5.36 18.7 6.632 18.7 8.072C18.7 9.56 18.352 10.856 17.656 11.96C16.984 13.04 16.024 13.892 14.776 14.516C13.528 15.116 12.076 15.416 10.42 15.416H4.192ZM0.591995 26V0.691999H5.488V26H0.591995ZM14.416 26L6.064 15.056L10.564 13.652L20.356 26H14.416Z" fill="#4B5563"/>
</svg>
