<svg width="437" height="375" viewBox="0 0 437 375" fill="none" xmlns="http://www.w3.org/2000/svg">
<path d="M218.3 0C243.2 0 267.3 4.9 290.1 14.5C302.2 19.6 313.8 26.1 324.6 33.7L322.3 34.9L292.7 50C270.1 37.4 244.4 30.8 218.3 30.8C217.9 30.8 217.5 30.8 217.1 30.8C197 31 177.4 35 158.9 42.7C140.4 50.5 123.8 61.6 109.6 75.8C80.6 104.9 64.6 143.5 64.6 184.5C64.6 191.2 65 197.9 65.9 204.6L66.2 206.7L68.1 205.7L323.6 75.4L376.5 48.4L436.4 17.8V52.4L374.7 83.9L344.4 99.3L75.1 236.8L73.9 237.5L60.1 244.5L46.1 251.6V251.5L44.8 252.1L0 275V240.4L15.2 232.7C27.9 226.2 35.5 212.8 34.4 198.5C34.1 193.8 33.9 189.1 33.9 184.4C33.9 159.5 38.8 135.3 48.4 112.5C57.7 90.5 71 70.8 87.9 53.8C104.8 36.9 124.5 23.5 146.5 14.2C169.2 4.9 193.4 0 218.3 0Z" fill="#F6F7F8"/>
<path d="M436.5 98.7V133.3L421.3 141C408.6 147.5 401 160.9 402.1 175.2C402.5 179.9 402.6 184.7 402.6 189.4C402.6 214.3 397.7 238.5 388.1 261.3C378.8 283.3 365.5 303 348.6 320C331.7 337 311.9 350.3 290 359.6C267.3 369.2 243.1 374.1 218.2 374.1C193.3 374.1 169.2 369.2 146.4 359.6C134.2 354.4 122.6 347.9 111.8 340.3L142.4 324.7L143.6 324.1C166.2 336.7 192 343.4 218.2 343.4C218.6 343.4 218.9 343.4 219.3 343.4C239.4 343.3 259 339.3 277.5 331.5C296 323.7 312.6 312.6 326.8 298.4C355.8 269.4 371.8 230.7 371.8 189.7C371.8 183 371.4 176.2 370.5 169.5L370.2 167.4L368.3 168.4L112.6 298.5L59.7 325.5L0 355.9V321.3L61.5 289.9L91.8 274.5L436.5 98.7Z" fill="#F6F7F8"/>
</svg>
